<svg xmlns="http://www.w3.org/2000/svg" id="Layer_1" viewBox="0 0 468 132">
  <style>
    .st0{fill:#2fcc70}
  </style>
  <g id="t-spring">
    <g id="Group-6-Copy-2" transform="translate(306 474)">
      <g id="Group-5-Copy-4" transform="translate(0 20)">
        <g id="Group-3">
          <path id="Combined-Shape" d="M-284-406c0 5.5 4.5 10 10 10h9v9h-10c-9.9 0-18-8.1-18-18v-42h-13v-9h13v-15l9-3v18h19v9h-19v41z"/>
        </g>
      </g>
      <path id="Rectangle-Copy-24" d="M-255-376h20v9h-20z" class="st0"/>
      <path id="Path" d="M-214.3-417.2c0 3 1.3 5.4 3.9 7.1 2.6 1.8 5.8 3.1 9.6 4.1 3.8 1 7.5 2 11.3 3.2 3.8 1.2 6.9 3.2 9.6 5.9 2.6 2.8 3.9 6.4 3.9 10.9 0 5.6-2.2 10.2-6.6 13.7-4.4 3.5-10.1 5.3-17.1 5.3-6.3 0-11.6-1.4-16-4.2s-7.5-6.5-9.2-10.9l7.3-4.3c1.2 3.4 3.4 6.1 6.6 8.1 3.2 2 7 3 11.3 3 4.3 0 7.9-.9 10.7-2.6 2.9-1.7 4.3-4.4 4.3-8 0-3-1.3-5.4-3.9-7.1s-5.8-3.1-9.6-4.1c-3.8-1-7.5-2-11.3-3.2-3.8-1.2-6.9-3.2-9.6-5.9s-3.9-6.4-3.9-10.9c0-5.4 2.1-9.8 6.4-13.4 4.2-3.6 9.6-5.4 16-5.4 5.3 0 10 1.2 14 3.6 4 2.4 7 5.7 8.9 9.8l-7.2 4.2c-2.5-6.1-7.8-9.2-15.7-9.2-3.8 0-7 .9-9.7 2.7-2.6 1.7-4 4.3-4 7.6z"/>
      <path id="Combined-Shape_1_" d="M-130.3-437c9.5 0 17.6 3.4 24.3 10.1 6.7 6.8 10 15 10 24.8s-3.3 18.1-10 24.8c-6.7 6.8-14.8 10.1-24.3 10.1-11.8 0-20.8-4.9-26.9-14.7v39.8h-8.8v-93.4h8.8v13.1c6.1-9.7 15.1-14.6 26.9-14.6zm-18.1 54.2c5.1 5.1 11.3 7.6 18.7 7.6 7.4 0 13.6-2.6 18.7-7.7s7.6-11.4 7.6-18.8-2.5-13.6-7.6-18.8-11.3-7.7-18.7-7.7c-7.4 0-13.6 2.6-18.7 7.7s-7.6 11.4-7.6 18.8c0 7.5 2.5 13.8 7.6 18.9z"/>
      <path id="Path_1_" d="M-77.5-423c4-8 10.8-12 20.5-12v8.4c-5.9 0-10.7 1.8-14.6 5.3-3.9 3.5-5.8 9.1-5.8 16.6v37.7H-86v-66.9h8.5v10.9z"/>
      <path id="Path_2_" d="M-36.8-443.8c-1.2 1.2-2.6 1.8-4.3 1.8s-3.1-.6-4.3-1.8-1.8-2.6-1.8-4.3.6-3.1 1.8-4.3 2.6-1.8 4.3-1.8 3.1.6 4.3 1.8 1.8 2.6 1.8 4.3-.6 3.2-1.8 4.3z"/>
      <path id="Path_3_" d="M-45-367v-68h8v68z"/>
      <path id="Path_4_" d="M6-436c8 0 14.4 2.5 19 7.4s7 11.5 7 19.9v41.8h-8.7v-41.8c0-5.9-1.6-10.5-4.7-13.8s-7.6-4.9-13.3-4.9c-6.4 0-11.5 2-15.5 6s-6 10.2-6 18.7v35.8H-25v-67.4h8.7v10.4C-11.3-432-3.9-436 6-436z"/>
      <path id="Combined-Shape_2_" d="M103.2-436.4h8.8v63.6c0 9.5-3.3 17.1-9.8 22.5-6.6 5.5-14.4 8.2-23.6 8.2-15.6 0-26.1-5.4-31.5-16.2l7.7-4.4c4 8 11.9 12.1 23.8 12.1 7.6 0 13.6-2 18-6s6.6-9.4 6.6-16.2v-10.3c-6.1 9.7-15.1 14.6-26.9 14.6-9.5 0-17.6-3.4-24.3-10.1-6.7-6.7-10-14.9-10-24.7 0-9.7 3.3-17.9 10-24.7 6.7-6.7 14.8-10.1 24.3-10.1 11.8 0 20.8 4.9 26.9 14.6v-12.9zm-44.4 51.6c5.1 5.1 11.3 7.6 18.7 7.6s13.6-2.6 18.7-7.7 7.6-11.4 7.6-18.8-2.5-13.6-7.6-18.8-11.3-7.7-18.7-7.7-13.6 2.6-18.7 7.7-7.6 11.4-7.6 18.8 2.6 13.7 7.6 18.9z"/>
      <path id="Rectangle-Copy-5" d="M134-474h28v28c0 6.6-5.4 12-12 12h-28v-28c0-6.6 5.4-12 12-12z" class="st0"/>
    </g>
  </g>
</svg>
